<svg id="Layer_1" data-name="Layer 1" xmlns="http://www.w3.org/2000/svg" viewBox="0 0 720 180"><polygon points="79 45 115 45 115 117 151 117 133 135 79 135 79 45" style="fill:#ed1c24"/><polygon points="177 45 249 45 249 63 231 63 231 117 249 117 249 135 177 135 177 117 195 117 195 63 177 63 177 45" style="fill:#ed1c24"/><polygon points="373 126 409 54 445 126 373 126" style="fill:#39b54a"/><polygon points="292.22 54.5 274.72 126 346.72 126 329.22 54.5 310.72 90 292.22 54.5" style="fill:#f15a24"/><polygon points="471 54 543 54 543 74 513 74 543 107 524 126 492 91 492 126 471 126 471 54" style="fill:#009245"/><path d="M569,55h23V91a13,13,0,0,0,13,13h0a13,13,0,0,0,13-13V55h23V92a36,36,0,0,1-36,36h0a36,36,0,0,1-36-36Z" style="fill:#009245"/></svg>